<svg viewBox="0 0 1200 1200" fill="#d4af37" xmlns="http://www.w3.org/2000/svg">
  <path d="m850.91 311.61c0-0.22656 0.011719-0.45703 0.011719-0.69531 0.003906-138.35-112.56-250.91-250.92-250.91s-250.92 112.56-250.92 250.92c0 33.73 6.8047 70.703 18.191 98.902l15.445 36.324 3.0469 6.7812c42.91 95.352 83.438 185.43 83.438 344.26 0 123.52-11.004 145.21-32.93 188.44-6.3828 12.59-13.633 26.867-21.648 45.422l-5.2305 11.676-0.34766 1.4297c-0.85156 3.4688-1.2734 6.9258-1.2734 10.262 0 50.398 78.395 85.586 190.63 85.586h3.2148c112.23 0 190.63-35.195 190.63-85.586 0-3.3359-0.43359-6.793-1.2852-10.262l-0.34766-1.4297-5.1484-11.484c-8.1133-18.758-15.348-33.023-21.73-45.613-21.926-43.223-32.93-64.922-32.93-188.44 0-158.83 40.523-248.9 83.438-344.26l2.9141-6.4805 15.457-36.359 0.10937-0.26562c9.3945-23.27 15.66-52.5 17.566-80.965 0.14844-1.2344 0.69922-12.215 0.61328-17.254zm-250.91-219.28c103.29 0 190.05 72 212.79 168.46-10.176-2.3633-21.047-1.2227-30.707 3.5898-16.117 8.0391-26.328 24.91-27.336 45.133-1.1172 22.402-5.0156 43.766-10.285 63.383-2.8906-0.34766-5.832-0.53906-8.8203-0.53906-32.891 0-60.805 21.637-70.297 51.406-6.5625-10.789-12.938-22.02-19.031-33-23.387-42.133-55.727-89.809-78.66-115.95-21.48-24.492-50.426-23.426-67.906-9.707-14.004 10.992-22.523 31.703-14.23 55.414l-0.15625 0.046875c6.2148 17.438 5.8789 33.949-0.94922 47.773-6.2266 12.574-17.508 22.02-31.789 26.594-13.848 4.4297-27.926 3.3711-39.625-2.9883-13.211-7.1758-22.777-20.449-27.66-38.387l-0.19141 0.046875c-2.4102-14.074-3.7305-28.656-3.7305-42.66-0.003906-120.57 98.062-218.62 218.59-218.62zm135.64 312.32c22.895 0 41.449 18.562 41.449 41.449 0 22.883-18.562 41.449-41.449 41.449-22.895 0-41.449-18.562-41.449-41.449 0-22.887 18.566-41.449 41.449-41.449zm-320.4 35.004-2.8438-6.3125-3.3945-7.9805c8.5547 3.0234 17.566 4.5859 26.762 4.5859 8.8438 0 17.832-1.4023 26.711-4.2461 22.691-7.2617 40.777-22.547 50.914-43.043 1.5117-3.0469 2.7969-6.1914 3.9102-9.3945 45.926 77.555 68.172 160.43 63.07 236.94-5.543 83.004-34.68 137.54-62.867 190.3-5.5781 10.453-11.074 20.746-16.32 31.105 0.22656-10.598 0.34766-22.031 0.34766-34.402-0.007813-165.8-43.867-263.28-86.289-357.55zm344.57 613.33c0.085937 0.50391 0.12109 0.98438 0.12109 1.4141 0 21.77-56.375 53.27-158.32 53.27h-3.2148c-101.94 0-158.32-31.5-158.32-53.27 0-0.43359 0.035156-0.91016 0.12109-1.4141l4.0078-8.9414c7.7148-17.844 14.711-31.645 20.891-43.824 8.7344-17.207 16.008-31.547 21.695-49.512 26.102 16.68 69.816 25.273 113.21 25.273 43.402 0 87.109-8.5938 113.21-25.273 5.6875 17.965 12.961 32.305 21.695 49.523 6.1797 12.18 13.176 25.98 20.977 44.016zm-61.32-255.8c0 54.266 2.2188 90.445 6.4688 117.5-0.70703 2.832-7.3086 10.02-24.961 16.656-20.809 7.8359-49.969 12.324-79.992 12.324-30.035 0-59.184-4.4883-79.992-12.324-9.2148-3.4688-15.406-7.0781-19.332-10.152 9.3828-38.113 26.879-70.922 45.336-105.47 28.402-53.172 60.602-113.43 66.613-203.38 6.3711-95.363-26.016-199.16-91.176-292.29-8.4844-12.133-9.168-23.723-1.7383-29.555 5.5312-4.3438 14.988-4.2969 23.664 5.5938 18.215 20.762 49.715 65.328 74.688 110.32 26.902 48.48 49.402 82.992 71.762 97.43 12.602 10.02 28.523 16.031 45.84 16.031 5.2188 0 10.32-0.55078 15.238-1.5977-29.102 73.488-52.418 158.04-52.418 278.9zm104.33-399.61-4.2617 10.02c-5.9141-9.6367-13.992-17.797-23.531-23.844 6.1328-22.234 10.727-46.715 12.012-72.66 0.43359-8.6523 3.793-14.977 9.4805-17.809 4.3438-2.1719 9.3242-1.8594 13.297 0.83984 4.8828 3.3125 7.9062 9.8047 8.7617 18.434-0.20703 29.293-6.0625 60.938-15.758 85.02z"></path>
</svg>
